<svg id="svg" version="1.1" xmlns="http://www.w3.org/2000/svg" xmlns:xlink="http://www.w3.org/1999/xlink" width="400" height="419.8250728862974" viewBox="0, 0, 400,419.8250728862974"><g id="svgg"><path id="path0" d="M55.199 146.550 C 55.199 256.211,55.087 293.100,54.755 293.100 C 54.433 293.100,54.385 294.175,54.578 296.987 C 54.753 299.518,54.709 300.875,54.454 300.875 C 54.207 300.875,54.149 301.806,54.298 303.401 C 54.462 305.154,54.400 305.928,54.097 305.928 C 53.802 305.928,53.737 306.498,53.899 307.677 C 54.066 308.899,54.000 309.427,53.680 309.427 C 53.365 309.427,53.301 309.856,53.476 310.787 C 53.652 311.728,53.587 312.148,53.265 312.148 C 52.936 312.148,52.876 312.607,53.061 313.703 C 53.243 314.779,53.184 315.258,52.870 315.258 C 52.568 315.258,52.502 315.648,52.672 316.424 C 52.831 317.144,52.772 317.590,52.519 317.590 C 52.271 317.590,52.201 318.050,52.342 318.756 C 52.488 319.486,52.416 319.922,52.148 319.922 C 51.880 319.922,51.807 320.358,51.953 321.088 C 52.104 321.841,52.029 322.255,51.742 322.255 C 51.462 322.255,51.387 322.614,51.541 323.226 C 51.698 323.850,51.621 324.198,51.328 324.198 C 51.048 324.198,50.966 324.499,51.118 324.976 C 51.261 325.428,51.187 325.753,50.942 325.753 C 50.686 325.753,50.616 326.135,50.764 326.725 C 50.916 327.331,50.843 327.697,50.569 327.697 C 50.296 327.697,50.223 328.062,50.375 328.669 C 50.515 329.227,50.451 329.640,50.224 329.640 C 50.007 329.640,49.921 329.990,50.033 330.418 C 50.152 330.872,50.045 331.195,49.776 331.195 C 49.493 331.195,49.411 331.494,49.563 331.973 C 49.710 332.438,49.633 332.750,49.368 332.750 C 49.104 332.750,49.026 333.062,49.174 333.528 C 49.322 333.993,49.244 334.305,48.980 334.305 C 48.715 334.305,48.637 334.617,48.785 335.083 C 48.924 335.519,48.855 335.860,48.629 335.860 C 48.408 335.860,48.327 336.122,48.450 336.443 C 48.573 336.764,48.469 337.026,48.218 337.026 C 47.938 337.026,47.857 337.328,48.008 337.804 C 48.156 338.269,48.078 338.581,47.813 338.581 C 47.549 338.581,47.471 338.893,47.619 339.359 C 47.757 339.795,47.689 340.136,47.463 340.136 C 47.242 340.136,47.161 340.398,47.284 340.719 C 47.407 341.040,47.302 341.302,47.051 341.302 C 46.772 341.302,46.690 341.604,46.842 342.080 C 46.980 342.516,46.911 342.857,46.686 342.857 C 46.464 342.857,46.384 343.120,46.507 343.440 C 46.630 343.761,46.542 344.023,46.312 344.023 C 46.082 344.023,45.995 344.286,46.118 344.606 C 46.241 344.927,46.154 345.190,45.924 345.190 C 45.694 345.190,45.606 345.452,45.729 345.773 C 45.852 346.093,45.765 346.356,45.535 346.356 C 45.305 346.356,45.217 346.618,45.340 346.939 C 45.464 347.259,45.360 347.522,45.111 347.522 C 44.862 347.522,44.766 347.697,44.898 347.911 C 45.030 348.124,44.941 348.299,44.700 348.299 C 44.439 348.299,44.362 348.613,44.509 349.077 C 44.648 349.513,44.579 349.854,44.353 349.854 C 44.132 349.854,44.051 350.117,44.174 350.437 C 44.297 350.758,44.194 351.020,43.945 351.020 C 43.695 351.020,43.600 351.195,43.732 351.409 C 43.864 351.623,43.792 351.798,43.573 351.798 C 43.353 351.798,43.274 352.060,43.397 352.381 C 43.520 352.702,43.417 352.964,43.167 352.964 C 42.918 352.964,42.822 353.139,42.954 353.353 C 43.086 353.567,43.015 353.741,42.795 353.741 C 42.575 353.741,42.496 354.004,42.619 354.325 C 42.742 354.645,42.639 354.908,42.390 354.908 C 42.141 354.908,42.045 355.083,42.177 355.296 C 42.309 355.510,42.213 355.685,41.964 355.685 C 41.715 355.685,41.611 355.948,41.734 356.268 C 41.857 356.589,41.778 356.851,41.559 356.851 C 41.339 356.851,41.267 357.026,41.399 357.240 C 41.532 357.454,41.436 357.629,41.186 357.629 C 40.937 357.629,40.834 357.891,40.957 358.212 C 41.080 358.533,41.017 358.795,40.816 358.795 C 40.616 358.795,40.564 359.086,40.700 359.442 C 40.866 359.874,40.799 359.996,40.498 359.810 C 40.204 359.629,40.128 359.741,40.279 360.135 C 40.407 360.468,40.307 360.739,40.058 360.739 C 39.808 360.739,39.712 360.914,39.845 361.127 C 39.977 361.341,39.889 361.516,39.650 361.516 C 39.411 361.516,39.324 361.691,39.456 361.905 C 39.588 362.119,39.500 362.293,39.261 362.293 C 39.022 362.293,38.935 362.468,39.067 362.682 C 39.199 362.896,39.128 363.071,38.908 363.071 C 38.688 363.071,38.620 363.362,38.757 363.718 C 38.922 364.150,38.855 364.272,38.554 364.086 C 38.260 363.904,38.184 364.017,38.336 364.411 C 38.463 364.744,38.364 365.015,38.114 365.015 C 37.865 365.015,37.769 365.190,37.901 365.403 C 38.033 365.617,37.946 365.792,37.707 365.792 C 37.467 365.792,37.380 365.967,37.512 366.181 C 37.644 366.395,37.557 366.569,37.318 366.569 C 37.079 366.569,36.991 366.744,37.123 366.958 C 37.256 367.172,37.168 367.347,36.929 367.347 C 36.690 367.347,36.603 367.522,36.735 367.736 C 36.867 367.949,36.795 368.124,36.575 368.124 C 36.356 368.124,36.276 368.385,36.398 368.704 C 36.525 369.035,36.354 369.386,36.000 369.522 C 35.658 369.653,35.475 369.917,35.594 370.109 C 35.712 370.300,35.613 370.457,35.374 370.457 C 35.135 370.457,35.048 370.632,35.180 370.845 C 35.312 371.059,35.224 371.234,34.985 371.234 C 34.746 371.234,34.659 371.409,34.791 371.623 C 34.923 371.837,34.836 372.012,34.597 372.012 C 34.358 372.012,34.270 372.187,34.402 372.400 C 34.534 372.614,34.447 372.789,34.208 372.789 C 33.969 372.789,33.881 372.964,34.014 373.178 C 34.146 373.392,34.058 373.567,33.819 373.567 C 33.580 373.567,33.493 373.741,33.625 373.955 C 33.757 374.169,33.670 374.344,33.431 374.344 C 33.191 374.344,33.104 374.519,33.236 374.733 C 33.368 374.947,33.262 375.121,33.000 375.121 C 32.738 375.121,32.637 375.235,32.777 375.375 C 32.916 375.514,32.726 375.877,32.355 376.181 C 31.906 376.550,31.875 376.650,32.264 376.482 C 32.653 376.314,32.623 376.414,32.173 376.783 C 31.802 377.087,31.613 377.450,31.752 377.589 C 31.891 377.729,31.772 377.843,31.487 377.843 C 31.202 377.843,31.082 377.956,31.222 378.096 C 31.361 378.235,31.171 378.598,30.801 378.902 C 30.351 379.271,30.320 379.371,30.709 379.203 C 31.099 379.035,31.068 379.135,30.618 379.504 C 30.247 379.809,30.058 380.171,30.197 380.311 C 30.336 380.450,30.217 380.564,29.932 380.564 C 29.647 380.564,29.528 380.678,29.667 380.817 C 29.806 380.956,29.616 381.319,29.246 381.623 C 28.796 381.992,28.765 382.092,29.155 381.924 C 29.475 381.786,29.398 381.948,28.983 382.284 C 28.568 382.621,28.383 382.896,28.571 382.896 C 28.760 382.896,28.575 383.171,28.160 383.508 C 27.745 383.844,27.668 384.004,27.988 383.863 C 28.309 383.722,28.134 383.986,27.600 384.451 C 27.065 384.916,26.890 385.178,27.211 385.034 C 27.532 384.890,27.357 385.152,26.822 385.617 C 26.288 386.082,26.113 386.346,26.433 386.205 C 26.754 386.064,26.677 386.224,26.262 386.560 C 25.847 386.897,25.662 387.172,25.850 387.172 C 26.039 387.172,25.854 387.447,25.439 387.784 C 25.024 388.120,24.947 388.280,25.267 388.139 C 25.588 387.998,25.413 388.262,24.879 388.727 C 24.344 389.192,24.169 389.454,24.490 389.310 C 24.810 389.166,24.636 389.428,24.101 389.893 C 23.567 390.358,23.392 390.620,23.712 390.476 C 24.033 390.332,23.858 390.595,23.324 391.059 C 22.789 391.524,22.614 391.782,22.935 391.633 C 23.256 391.485,23.072 391.775,22.528 392.280 C 21.983 392.784,21.729 393.110,21.963 393.003 C 22.197 392.896,21.943 393.221,21.398 393.726 C 20.854 394.230,20.671 394.517,20.991 394.363 C 21.312 394.210,21.129 394.497,20.584 395.001 C 20.040 395.506,19.785 395.831,20.019 395.724 C 20.253 395.617,19.999 395.942,19.455 396.447 C 18.910 396.951,18.727 397.238,19.048 397.085 C 19.368 396.931,19.185 397.218,18.641 397.722 C 18.096 398.227,17.921 398.483,18.252 398.291 C 18.583 398.100,18.232 398.537,17.473 399.263 C 16.713 399.989,16.371 400.408,16.712 400.194 C 17.053 399.981,16.705 400.418,15.938 401.166 C 15.171 401.914,14.822 402.352,15.163 402.138 C 15.505 401.924,15.162 402.343,14.403 403.069 C 13.644 403.795,13.372 404.160,13.800 403.880 C 14.227 403.600,13.867 404.056,13.000 404.893 C 12.132 405.729,11.784 406.152,12.227 405.831 C 12.669 405.510,11.880 406.385,10.474 407.775 C 9.067 409.164,8.636 409.689,9.516 408.941 C 10.396 408.192,9.523 409.155,7.576 411.079 C 5.629 413.003,4.843 413.878,5.829 413.022 C 6.815 412.167,5.921 413.129,3.841 415.160 C 1.759 417.194,0.149 419.072,0.258 419.341 C 0.520 419.991,356.074 420.057,356.074 419.407 C 356.074 419.172,356.408 419.101,356.851 419.242 C 357.327 419.393,357.629 419.312,357.629 419.032 C 357.629 418.781,357.891 418.676,358.212 418.799 C 358.533 418.923,358.795 418.835,358.795 418.605 C 358.795 418.375,359.057 418.288,359.378 418.411 C 359.699 418.534,359.961 418.455,359.961 418.235 C 359.961 418.015,360.136 417.944,360.350 418.076 C 360.564 418.208,360.739 418.112,360.739 417.863 C 360.739 417.613,361.001 417.510,361.322 417.633 C 361.642 417.756,361.905 417.669,361.905 417.439 C 361.905 417.209,362.167 417.121,362.488 417.245 C 362.809 417.368,363.071 417.289,363.071 417.069 C 363.071 416.849,363.246 416.777,363.460 416.910 C 363.673 417.042,363.848 416.946,363.848 416.697 C 363.848 416.447,364.119 416.347,364.452 416.475 C 364.846 416.626,364.958 416.550,364.777 416.256 C 364.591 415.955,364.713 415.888,365.145 416.054 C 365.501 416.190,365.792 416.122,365.792 415.903 C 365.792 415.683,365.967 415.611,366.181 415.743 C 366.395 415.876,366.569 415.788,366.569 415.549 C 366.569 415.310,366.744 415.223,366.958 415.355 C 367.172 415.487,367.347 415.399,367.347 415.160 C 367.347 414.921,367.522 414.834,367.736 414.966 C 367.949 415.098,368.124 415.002,368.124 414.753 C 368.124 414.504,368.382 414.399,368.697 414.520 C 369.013 414.641,369.444 414.442,369.657 414.075 C 369.870 413.710,370.050 413.576,370.056 413.777 C 370.063 413.978,370.343 413.803,370.680 413.388 C 371.016 412.973,371.178 412.896,371.040 413.217 C 370.872 413.606,370.972 413.575,371.341 413.126 C 371.645 412.755,372.008 412.565,372.147 412.704 C 372.286 412.844,372.400 412.760,372.400 412.518 C 372.400 412.276,372.771 411.879,373.225 411.637 C 373.890 411.281,373.994 411.297,373.765 411.720 C 373.609 412.009,373.894 411.799,374.399 411.255 C 374.903 410.710,375.159 410.535,374.968 410.866 C 374.776 411.197,375.213 410.846,375.939 410.087 C 376.665 409.327,377.085 408.984,376.871 409.323 C 376.657 409.662,377.182 409.224,378.037 408.350 C 378.892 407.476,379.329 407.124,379.009 407.568 C 378.688 408.012,379.529 407.196,380.876 405.755 C 382.224 404.313,384.326 402.210,385.547 401.081 C 386.769 399.952,387.493 399.203,387.158 399.417 C 386.823 399.631,387.170 399.212,387.929 398.486 C 388.689 397.760,389.041 397.322,388.712 397.514 C 388.383 397.705,388.564 397.425,389.116 396.890 C 389.667 396.356,389.862 396.093,389.549 396.307 C 389.142 396.585,389.179 396.390,389.676 395.627 C 390.333 394.617,391.030 394.050,390.439 395.007 C 390.266 395.287,390.333 395.350,390.617 395.174 C 390.867 395.019,390.956 394.706,390.815 394.478 C 390.674 394.249,390.977 393.721,391.489 393.305 C 392.001 392.888,392.184 392.670,391.895 392.822 C 391.472 393.043,391.456 392.937,391.812 392.272 C 392.054 391.819,392.451 391.448,392.693 391.448 C 392.935 391.448,393.019 391.334,392.879 391.195 C 392.740 391.056,392.930 390.693,393.301 390.389 C 393.671 390.084,393.758 389.945,393.493 390.079 C 393.177 390.239,393.091 390.116,393.242 389.721 C 393.369 389.391,393.628 389.216,393.817 389.332 C 394.006 389.449,394.056 389.273,393.929 388.941 C 393.801 388.609,393.901 388.338,394.150 388.338 C 394.400 388.338,394.496 388.163,394.363 387.949 C 394.231 387.736,394.319 387.561,394.558 387.561 C 394.797 387.561,394.884 387.386,394.752 387.172 C 394.620 386.958,394.708 386.783,394.947 386.783 C 395.186 386.783,395.273 386.608,395.141 386.395 C 395.009 386.181,395.096 386.006,395.335 386.006 C 395.574 386.006,395.662 385.831,395.530 385.617 C 395.398 385.403,395.469 385.228,395.689 385.228 C 395.909 385.228,395.988 384.966,395.865 384.645 C 395.742 384.325,395.845 384.062,396.094 384.062 C 396.343 384.062,396.439 383.887,396.307 383.673 C 396.175 383.460,396.247 383.285,396.466 383.285 C 396.686 383.285,396.765 383.022,396.642 382.702 C 396.519 382.381,396.606 382.119,396.836 382.119 C 397.066 382.119,397.154 381.856,397.031 381.535 C 396.908 381.215,396.995 380.952,397.225 380.952 C 397.455 380.952,397.543 380.690,397.419 380.369 C 397.296 380.049,397.384 379.786,397.614 379.786 C 397.844 379.786,397.931 379.524,397.808 379.203 C 397.685 378.882,397.790 378.620,398.041 378.620 C 398.321 378.620,398.402 378.319,398.251 377.843 C 398.115 377.415,398.174 377.065,398.383 377.065 C 398.591 377.065,398.670 376.715,398.558 376.288 C 398.446 375.860,398.544 375.510,398.776 375.510 C 399.008 375.510,399.097 375.248,398.974 374.927 C 398.851 374.606,398.933 374.344,399.157 374.344 C 399.403 374.344,399.476 373.811,399.342 372.983 C 399.200 372.108,399.276 371.623,399.556 371.623 C 399.876 371.623,399.992 322.548,399.998 185.811 L 400.005 0.000 227.602 0.000 L 55.199 0.000 55.199 146.550 M354.130 80.466 L 354.130 85.520 226.045 85.520 L 97.959 85.520 97.959 80.466 L 97.959 75.413 226.045 75.413 L 354.130 75.413 354.130 80.466 M354.130 194.363 L 354.130 199.417 226.045 199.417 L 97.959 199.417 97.959 194.363 L 97.959 189.310 226.045 189.310 L 354.130 189.310 354.130 194.363 M354.045 308.552 L 353.936 313.508 226.045 313.508 L 98.154 313.508 98.045 308.552 L 97.936 303.596 226.045 303.596 L 354.153 303.596 354.045 308.552 M383.285 403.693 C 381.692 405.296,380.476 406.608,380.583 406.608 C 380.690 406.608,382.081 405.296,383.673 403.693 C 385.266 402.089,386.482 400.777,386.375 400.777 C 386.268 400.777,384.878 402.089,383.285 403.693 M2.332 417.298 C 1.388 418.260,0.528 419.048,0.421 419.048 C 0.314 419.048,0.999 418.260,1.944 417.298 C 2.888 416.336,3.748 415.549,3.855 415.549 C 3.962 415.549,3.277 416.336,2.332 417.298 " stroke="none" fill="#fcfcfc" fill-rule="evenodd"></path><path id="path1" d="M98.128 75.922 C 98.020 76.203,97.982 78.433,98.043 80.879 L 98.154 85.326 226.045 85.326 L 353.936 85.326 353.936 80.466 L 353.936 75.607 226.130 75.510 C 120.922 75.429,98.289 75.502,98.128 75.922 M353.741 80.466 L 353.741 85.131 226.045 85.131 L 98.348 85.131 98.348 80.466 L 98.348 75.802 226.045 75.802 L 353.741 75.802 353.741 80.466 M98.128 189.819 C 98.020 190.100,97.982 192.330,98.043 194.776 L 98.154 199.223 226.045 199.223 L 353.936 199.223 353.936 194.363 L 353.936 189.504 226.130 189.407 C 120.922 189.326,98.289 189.399,98.128 189.819 M353.741 194.363 L 353.741 199.028 226.045 199.028 L 98.348 199.028 98.348 194.363 L 98.348 189.699 226.045 189.699 L 353.741 189.699 353.741 194.363 M98.128 304.106 C 98.020 304.387,97.988 306.530,98.057 308.869 L 98.183 313.120 98.265 308.552 L 98.348 303.984 226.032 303.984 L 353.717 303.984 353.847 308.552 L 353.976 313.120 353.956 308.455 L 353.936 303.790 226.130 303.692 C 120.768 303.612,98.289 303.684,98.128 304.106 M162.422 313.605 C 197.556 313.660,254.932 313.660,289.925 313.605 C 324.917 313.551,296.171 313.506,226.045 313.506 C 155.918 313.506,127.288 313.551,162.422 313.605 " stroke="none" fill="#e4acac" fill-rule="evenodd"></path><path id="path2" d="M98.348 80.466 L 98.348 85.131 226.045 85.131 L 353.741 85.131 353.741 80.466 L 353.741 75.802 226.045 75.802 L 98.348 75.802 98.348 80.466 M98.348 194.363 L 98.348 199.028 226.045 199.028 L 353.741 199.028 353.741 194.363 L 353.741 189.699 226.045 189.699 L 98.348 189.699 98.348 194.363 M98.348 308.649 L 98.348 313.314 226.045 313.314 L 353.741 313.314 353.741 308.649 L 353.741 303.984 226.045 303.984 L 98.348 303.984 98.348 308.649 " stroke="none" fill="#fc0404" fill-rule="evenodd"></path><path id="path3" d="M55.003 146.550 C 55.003 227.259,55.047 260.277,55.102 219.922 C 55.157 179.568,55.157 113.533,55.102 73.178 C 55.047 32.823,55.003 65.841,55.003 146.550 M54.520 299.514 C 54.524 300.369,54.604 300.673,54.697 300.190 C 54.790 299.706,54.786 299.007,54.689 298.635 C 54.592 298.263,54.515 298.659,54.520 299.514 M54.139 304.373 C 54.139 305.335,54.215 305.729,54.307 305.248 C 54.400 304.767,54.400 303.980,54.307 303.499 C 54.215 303.017,54.139 303.411,54.139 304.373 " stroke="none" fill="#cccccc" fill-rule="evenodd"></path><path id="path4" d="M390.073 395.044 C 389.474 395.952,389.232 396.491,389.535 396.240 C 390.119 395.758,391.608 393.392,391.327 393.392 C 391.237 393.392,390.672 394.135,390.073 395.044 M383.081 403.596 L 379.981 406.803 383.188 403.702 C 384.951 401.997,386.395 400.553,386.395 400.495 C 386.395 400.212,385.961 400.617,383.081 403.596 M9.329 409.135 C 8.385 410.097,7.700 410.884,7.807 410.884 C 7.914 410.884,8.774 410.097,9.718 409.135 C 10.662 408.173,11.347 407.386,11.241 407.386 C 11.134 407.386,10.274 408.173,9.329 409.135 M5.622 413.314 L 3.693 415.355 5.734 413.426 C 7.630 411.633,7.953 411.273,7.663 411.273 C 7.601 411.273,6.683 412.191,5.622 413.314 M1.735 417.590 L -0.194 419.631 1.846 417.702 C 2.969 416.641,3.887 415.722,3.887 415.661 C 3.887 415.371,3.527 415.694,1.735 417.590 " stroke="none" fill="#dcdcdc" fill-rule="evenodd"></path></g></svg>