<svg id="svg" version="1.1" xmlns="http://www.w3.org/2000/svg" xmlns:xlink="http://www.w3.org/1999/xlink" width="400" height="416" viewBox="0, 0, 400,416"><g id="svgg"><path id="path0" d="M80.000 22.022 C 59.919 22.365,56.419 22.778,54.980 24.974 C 53.439 27.326,53.308 36.474,53.480 129.200 C 53.616 202.193,53.334 324.397,53.022 328.400 C 52.263 338.104,49.286 344.612,42.877 350.577 C 39.260 353.943,37.787 357.234,35.800 366.390 C 34.233 373.606,31.557 378.597,26.935 382.920 C 20.931 388.537,20.500 395.176,26.077 396.128 C 29.898 396.781,57.853 396.520,62.800 395.786 C 67.573 395.077,74.328 395.032,211.400 394.786 C 316.305 394.599,356.132 394.404,359.200 394.065 C 375.830 392.223,375.793 392.244,377.682 383.600 L 378.600 379.400 378.600 202.108 L 378.600 24.815 377.292 23.508 L 375.984 22.200 253.092 22.153 C 185.501 22.127,122.550 22.024,113.200 21.925 C 103.850 21.826,88.910 21.870,80.000 22.022 M349.200 59.888 C 356.130 62.255,358.000 66.790,358.000 81.225 C 358.000 94.663,356.174 98.662,349.009 100.916 L 346.200 101.800 224.400 101.800 L 102.600 101.800 99.800 100.914 C 92.564 98.625,90.534 93.632,90.908 79.037 C 91.217 66.951,92.715 63.040,97.927 60.711 C 102.253 58.777,96.658 58.855,225.600 58.930 L 346.600 59.000 349.200 59.888 M346.600 171.248 C 355.663 172.826,357.989 177.065,357.987 192.000 C 357.985 206.910,356.140 210.863,348.000 213.396 C 344.907 214.359,105.311 214.347,101.560 213.384 C 92.946 211.173,90.806 206.956,90.806 192.200 C 90.806 178.615,92.787 174.254,100.100 171.738 C 103.287 170.641,340.409 170.171,346.600 171.248 M349.584 283.965 C 356.091 286.395,357.667 289.912,357.904 302.539 C 358.225 319.613,355.884 323.925,345.384 325.603 C 341.668 326.196,107.097 326.191,103.380 325.597 C 93.262 323.980,90.814 319.851,90.814 304.400 C 90.814 291.834,92.375 287.302,97.640 284.579 C 101.135 282.772,95.549 282.845,225.000 282.925 L 347.000 283.000 349.584 283.965 M398.649 409.920 C 398.526 410.119,397.700 410.210,396.813 410.121 C 395.553 409.995,395.200 410.096,395.200 410.580 C 395.200 410.921,394.930 411.200,394.600 411.200 C 394.190 411.200,393.984 411.644,393.950 412.600 C 393.888 414.324,393.858 414.489,393.505 415.044 C 393.011 415.819,393.652 416.000,396.883 416.000 L 400.034 416.000 399.917 412.932 C 399.810 410.114,399.291 408.882,398.649 409.920 " stroke="none" fill="#fcfcfc" fill-rule="evenodd"></path><path id="path1" d="M7.902 5.745 C 7.762 9.488,7.498 11.822,7.144 12.445 C 6.689 13.244,6.582 38.054,6.492 164.700 L 6.385 316.000 3.192 316.000 L 0.000 316.000 0.000 366.000 L 0.000 416.000 20.000 416.000 L 40.000 416.000 40.000 415.014 C 40.000 414.039,40.044 414.027,44.100 413.898 L 48.200 413.769 44.100 413.684 L 40.000 413.600 40.000 412.243 L 40.000 410.886 36.000 410.600 C 33.800 410.443,32.000 410.153,32.000 409.957 C 32.000 409.761,30.848 409.600,29.441 409.600 C 22.916 409.600,11.887 398.247,11.939 391.584 C 11.962 388.590,15.866 375.061,17.820 371.200 C 18.625 369.611,21.600 365.932,21.600 366.526 C 21.600 366.651,22.417 366.010,23.416 365.101 C 25.571 363.140,27.238 359.810,28.156 355.634 C 30.452 345.186,33.788 337.557,37.035 335.329 C 43.055 331.198,43.427 330.048,43.862 314.200 C 44.375 295.486,44.625 55.960,44.152 35.400 C 43.842 21.911,44.868 19.492,52.064 16.762 L 54.600 15.800 215.600 15.800 L 376.600 15.800 378.433 16.878 C 380.741 18.235,383.038 20.758,384.145 23.151 L 385.000 25.000 385.017 191.203 C 385.026 282.615,385.160 357.612,385.315 357.862 C 385.644 358.395,384.993 377.449,384.387 385.000 C 383.363 397.768,381.846 399.802,372.821 400.510 C 369.679 400.757,326.696 400.892,258.000 400.871 C 197.610 400.853,130.920 400.976,109.800 401.145 L 71.400 401.452 68.000 402.567 C 62.136 404.489,55.600 408.530,55.600 410.234 C 55.600 410.545,55.330 410.800,55.000 410.800 C 54.107 410.800,54.198 413.088,55.100 413.324 C 55.767 413.498,55.767 413.509,55.100 413.554 C 53.767 413.642,54.224 415.465,55.650 415.750 C 57.447 416.109,391.592 416.060,391.640 415.700 C 391.662 415.535,391.753 414.176,391.843 412.681 C 392.086 408.597,392.706 408.106,397.700 408.033 L 400.000 408.000 400.000 204.000 L 400.000 0.000 204.059 -0.000 L 8.118 -0.000 7.902 5.745 M106.600 65.187 C 102.682 65.645,99.492 67.935,97.965 71.386 C 96.870 73.862,96.700 87.570,97.740 89.524 C 98.810 91.533,101.156 93.957,102.973 94.929 L 104.600 95.800 224.200 95.800 C 356.929 95.800,344.889 96.053,348.144 93.195 C 351.499 90.249,351.801 89.193,351.794 80.400 C 351.790 73.667,351.691 72.419,351.072 71.276 C 349.975 69.250,347.634 66.838,345.827 65.871 L 344.200 65.000 226.600 64.953 C 161.920 64.927,107.920 65.032,106.600 65.187 M105.167 177.171 C 102.447 177.705,99.396 180.215,97.708 183.305 C 96.692 185.166,96.656 199.042,97.661 201.256 C 98.575 203.268,101.027 205.888,102.973 206.929 L 104.600 207.800 223.600 207.913 C 353.720 208.036,344.740 208.210,347.810 205.507 C 351.521 202.241,351.800 201.324,351.800 192.400 C 351.800 182.895,350.853 180.602,345.800 177.866 L 344.200 177.000 225.400 176.945 C 160.060 176.914,105.955 177.016,105.167 177.171 M104.069 289.306 C 98.770 291.009,97.000 294.789,97.000 304.400 C 97.000 314.035,97.902 316.144,103.276 319.077 C 105.342 320.205,343.458 320.205,345.524 319.077 C 350.901 316.142,351.801 314.035,351.794 304.400 C 351.788 294.916,351.022 293.011,346.045 290.085 L 344.200 289.000 224.800 288.939 C 140.941 288.896,105.004 289.005,104.069 289.306 " stroke="none" fill="#ec5158" fill-rule="evenodd"></path><path id="path2" d="" stroke="none" fill="#f0d0100" fill-rule="evenodd"></path><path id="path3" d="" stroke="none" fill="#f0d0100" fill-rule="evenodd"></path><path id="path4" d="" stroke="none" fill="#f0d0100" fill-rule="evenodd"></path></g></svg>